<svg xmlns="http://www.w3.org/2000/svg" version="1.1" xmlns:xlink="http://www.w3.org/1999/xlink" xmlns:svgjs="http://svgjs.dev/svgjs" width="1500" height="1500" viewBox="0 0 1500 1500"><rect width="1500" height="1500" fill="#ffffff"></rect><g transform="matrix(0.6666666666666666,0,0,0.6666666666666666,249.39393939393938,537.0369627650555)"><svg viewBox="0 0 396 169" data-background-color="#ffffff" preserveAspectRatio="xMidYMid meet" height="640" width="1500" xmlns="http://www.w3.org/2000/svg" xmlns:xlink="http://www.w3.org/1999/xlink"><g id="tight-bounds" transform="matrix(1,0,0,1,0.2400000000000091,-0.1466719702211492)"><svg viewBox="0 0 395.52 169.29334394044218" height="169.29334394044218" width="395.52"><g><svg viewBox="0 0 656.8758950872844 281.16079296419264" height="169.29334394044218" width="395.52"><g transform="matrix(1,0,0,1,261.35589508728447,17.528756001347432)"><svg viewBox="0 0 395.52 246.10328096149777" height="246.10328096149777" width="395.52"><g id="textblocktransform"><svg viewBox="0 0 395.52 246.10328096149777" height="246.10328096149777" width="395.52" id="textblock"><g><svg viewBox="0 0 395.52 185.5842384964355" height="185.5842384964355" width="395.52"><g transform="matrix(1,0,0,1,0,0)"><svg width="395.52" viewBox="0.6 -35.6 77.15 36.2" height="185.5842384964355" data-palette-color="#ea3a36"><path d="M0.6-35L20.5-35 20.5-29 14-29 14 0 7.1 0 7.1-29 0.6-29 0.6-35ZM34.15-15.15L34.15-35 41.05-35 41.05-15.15Q41.05-8.9 40.05-7.15 39.05-5.4 35.77-2.4 32.5 0.6 30.67 0.6 28.85 0.6 25.95-1.55 23.05-3.7 21.6-6.6L21.6-6.6 27.15-10.5Q27.2-10.45 27.57-9.93 27.95-9.4 28.25-9.03 28.55-8.65 29-8.2L29-8.2Q29.95-7.15 30.62-7.15 31.3-7.15 32.15-7.98 33-8.8 33.57-9.7 34.15-10.6 34.15-15.15L34.15-15.15ZM65.95 0L59.05 0 59.05-25.45Q59.05-26.3 58.72-26.88 58.4-27.45 57.65-28.2 56.9-28.95 56.45-28.95L56.45-28.95Q55.45-28.95 53.8-26.95L53.8-26.95Q53.95-25.7 53.95-24.3L53.95-24.3 53.95 0 47.05 0 47.05-21.4Q47.05-25.65 46.47-27.35 45.9-29.05 44.05-31.4L44.05-31.4 50.05-35.6Q51.65-34.45 52.34-32.85L52.34-32.85Q55.95-35.6 57.45-35.6 58.95-35.6 63.09-31.75L63.09-31.75Q67.25-35.6 68.95-35.6L68.95-35.6Q70.2-35.6 73.22-32.98 76.25-30.35 77-29.28 77.75-28.2 77.75-26.45L77.75-26.45 77.75 0 70.84 0 70.84-25.45Q70.84-26.4 70.5-26.93 70.15-27.45 69.32-28.2 68.5-28.95 67.87-28.95 67.25-28.95 65.9-27.3L65.9-27.3Q65.95-27.05 65.95-26.45L65.95-26.45 65.95 0Z" opacity="1" transform="matrix(1,0,0,1,0,0)" fill="#000000" class="wordmark-text-0" data-fill-palette-color="primary" id="text-0"></path></svg></g></svg></g><g transform="matrix(1,0,0,1,0,229.39622318372)"><svg viewBox="0 0 180.35711999999998 16.707057777777777" height="16.707057777777777" width="180.35711999999998"><g transform="matrix(1,0,0,1,0,0)"><svg width="180.35711999999998" viewBox="0.83 -44.58 601.12 55.69" height="16.707057777777777" data-palette-color="#ea3a36"><path d="M10.89 0L0.83-37.35 5.32-37.35 12.55-9.13 13.82-3.17 15.23-9.13 22.75-37.35 27.61-37.35 36.57-2.98 37.87-9.23 44.75-37.35 49.15-37.35 39.58 0 33.37 0 26.22-26.71 25.12-33.01 23.97-26.71 16.6 0 10.89 0ZM76.9-5.03L78.1-1.54Q73.04 0.49 66.94 0.49L66.94 0.49Q63.4 0.49 60.94-0.24L60.94-0.24Q57-1.37 55.71-4.88L55.71-4.88Q54.51-8.18 54.51-14.65L54.51-14.65 54.51-15.89Q54.51-23.63 57.74-26.76L57.74-26.76Q60.64-29.54 67.43-29.54L67.43-29.54Q74.05-29.54 76.46-26.27L76.46-26.27Q77.63-24.68 78.01-22.42 78.39-20.17 78.39-18.12L78.39-18.12Q78.39-14.92 78.24-13.16L78.24-13.16Q74.8-13.01 72.07-13.01L72.07-13.01Q72.07-13.01 68.14-13.01L68.14-13.01Q61.98-13.01 58.66-13.55L58.66-13.55Q58.66-7.93 60.08-5.71L60.08-5.71Q61.81-3 66.99-3 72.17-3 76.9-5.03L76.9-5.03ZM58.66-16.41L74.27-16.41 74.27-18.75Q74.27-22.58 72.78-24.22L72.78-24.22Q71.12-26.05 67.04-26.05L67.04-26.05Q62.16-26.05 60.37-23.93L60.37-23.93Q58.66-21.9 58.66-16.41L58.66-16.41ZM92.45-2.71L92.45-2.71 91.94 0 88.5 0 88.5-41.55 92.55-41.94 92.55-26.27Q97.6-29.54 102.31-29.54L102.31-29.54Q108.86-29.54 110.62-25.51L110.62-25.51Q111.71-22.97 111.86-18.38L111.86-18.38Q111.91-16.16 111.91-13.5L111.91-13.5 111.91-11.55Q111.91-8.2 111.48-6.52 111.05-4.83 110.4-3.63 109.74-2.42 108.59-1.51L108.59-1.51Q106.1 0.49 101.46 0.49 96.82 0.49 92.45-2.71ZM92.55-23.05L92.55-5.91Q97.72-3.1 101.26-3.1L101.26-3.1 101.56-3.1Q105.73-3.1 106.93-5.42L106.93-5.42Q107.56-6.59 107.71-8.47 107.86-10.35 107.86-12.99L107.86-12.99 107.86-16.5Q107.86-21.95 106.61-23.83L106.61-23.83Q105.39-25.71 101.97-25.71L101.97-25.71 101.36-25.71Q98.31-25.71 94.28-23.9L94.28-23.9Q93.23-23.44 92.55-23.05L92.55-23.05ZM116.74 2.78L133.32-44.58 136.96-44.58 120.28 2.78 116.74 2.78ZM140.42 0L146.18-37.35 152.55-37.35 161.05-9.77 162.49-3.81 163.88-9.79 172.08-37.35 178.16-37.35 184.19 0 180.04 0 175.5-28.22 174.82-34.81 173.33-28.17 164.91-0.02 160.1-0.02 151.31-28.32 149.57-34.81 148.74-28.27 144.62 0 140.42 0ZM192-14.45L192-14.45Q192-20 192.57-22.19 193.13-24.39 193.95-25.67 194.76-26.95 196.15-27.81L196.15-27.81Q198.94-29.54 204.38-29.54L204.38-29.54Q212.24-29.54 214.49-25.66L214.49-25.66Q215.83-23.32 216.03-19.04L216.03-19.04Q216.1-17.02 216.1-14.58 216.1-12.13 215.94-10.02 215.78-7.91 215.32-6.23 214.86-4.54 214.03-3.28 213.2-2.03 211.83-1.17L211.83-1.17Q209.14 0.49 203.99 0.49L203.99 0.49Q196.28 0.49 193.86-3.32L193.86-3.32Q192.37-5.69 192.13-9.96L192.13-9.96Q192-12.01 192-14.45ZM198.64-4.27Q199.52-3.61 200.85-3.28 202.18-2.95 204.49-2.95 206.8-2.95 208.37-3.61 209.95-4.27 210.74-5.73 211.54-7.18 211.74-9.5 211.95-11.82 211.95-14.89 211.95-17.97 211.77-20.02 211.58-22.07 210.85-23.41L210.85-23.41Q209.39-26.05 204.33-26.05L204.33-26.05Q198.99-26.05 197.38-23.41L197.38-23.41Q196.57-22.07 196.35-20 196.13-17.92 196.13-15.48 196.13-13.04 196.19-11.34 196.25-9.64 196.51-8.29 196.76-6.93 197.27-5.93 197.77-4.93 198.64-4.27ZM229.94-2.71L229.94-2.71 229.43 0 225.99 0 225.99-41.55 230.04-41.94 230.04-26.27Q235.09-29.54 239.8-29.54L239.8-29.54Q246.35-29.54 248.11-25.51L248.11-25.51Q249.2-22.97 249.35-18.38L249.35-18.38Q249.4-16.16 249.4-13.5L249.4-13.5 249.4-11.55Q249.4-8.2 248.97-6.52 248.54-4.83 247.89-3.63 247.23-2.42 246.08-1.51L246.08-1.51Q243.59 0.49 238.95 0.49 234.31 0.49 229.94-2.71ZM230.04-23.05L230.04-5.91Q235.21-3.1 238.75-3.1L238.75-3.1 239.05-3.1Q243.22-3.1 244.42-5.42L244.42-5.42Q245.05-6.59 245.2-8.47 245.35-10.35 245.35-12.99L245.35-12.99 245.35-16.5Q245.35-21.95 244.1-23.83L244.1-23.83Q242.88-25.71 239.46-25.71L239.46-25.71 238.85-25.71Q235.8-25.71 231.77-23.9L231.77-23.9Q230.72-23.44 230.04-23.05L230.04-23.05ZM262.34-36.01L262.34-36.01Q260.7-36.01 260.24-36.47L260.24-36.47Q259.5-37.23 259.5-38.56 259.5-39.89 259.66-40.47 259.82-41.04 260.14-41.36L260.14-41.36Q260.72-41.94 261.93-41.94 263.14-41.94 263.67-41.82 264.19-41.7 264.53-41.36L264.53-41.36Q265.12-40.77 265.12-39.44 265.12-38.11 264.98-37.54 264.85-36.96 264.53-36.62L264.53-36.62Q263.92-36.01 262.34-36.01ZM260.41 0L260.36-29.05 264.36-29.05 264.36 0 260.41 0ZM277.03 0L276.98-41.5 281.01-41.85 281.01 0 277.03 0ZM314.33-5.03L315.53-1.54Q310.48 0.49 304.37 0.49L304.37 0.49Q300.83 0.49 298.37-0.24L298.37-0.24Q294.44-1.37 293.14-4.88L293.14-4.88Q291.95-8.18 291.95-14.65L291.95-14.65 291.95-15.89Q291.95-23.63 295.17-26.76L295.17-26.76Q298.07-29.54 304.86-29.54L304.86-29.54Q311.48-29.54 313.89-26.27L313.89-26.27Q315.07-24.68 315.44-22.42 315.82-20.17 315.82-18.12L315.82-18.12Q315.82-14.92 315.68-13.16L315.68-13.16Q312.23-13.01 309.5-13.01L309.5-13.01Q309.5-13.01 305.57-13.01L305.57-13.01Q299.42-13.01 296.1-13.55L296.1-13.55Q296.1-7.93 297.51-5.71L297.51-5.71Q299.25-3 304.42-3 309.6-3 314.33-5.03L314.33-5.03ZM296.1-16.41L311.7-16.41 311.7-18.75Q311.7-22.58 310.21-24.22L310.21-24.22Q308.55-26.05 304.47-26.05L304.47-26.05Q299.59-26.05 297.8-23.93L297.8-23.93Q296.1-21.9 296.1-16.41L296.1-16.41ZM338.86 0L338.86-37.13Q338.86-37.13 342.53-37.4L342.53-37.4Q348.02-37.84 351.29-37.84 354.56-37.84 356.52-37.59 358.47-37.33 359.95-36.71 361.42-36.08 362.46-35.01 363.5-33.94 364.16-32.28L364.16-32.28Q365.4-29.17 365.4-23.05L365.4-23.05 365.4-19.26Q365.4-12.01 364.33-8.25L364.33-8.25Q363.08-3.91 359.86-2L359.86-2Q356.54 0 350.12 0L350.12 0 338.86 0ZM359.59-31.42Q358.71-32.81 357.05-33.52 355.39-34.23 351.95-34.23 348.51-34.23 343.01-33.81L343.01-33.81 343.01-3.49 350.78-3.49Q355.32-3.49 357.52-4.98L357.52-4.98Q359.66-6.42 360.4-9.94L360.4-9.94Q361.03-12.82 361.03-19.26L361.03-19.26 361.03-23.07Q361.03-29.15 359.59-31.42L359.59-31.42ZM397.55-5.03L398.75-1.54Q393.7 0.49 387.59 0.49L387.59 0.49Q384.05 0.49 381.59-0.24L381.59-0.24Q377.66-1.37 376.36-4.88L376.36-4.88Q375.17-8.18 375.17-14.65L375.17-14.65 375.17-15.89Q375.17-23.63 378.39-26.76L378.39-26.76Q381.29-29.54 388.08-29.54L388.08-29.54Q394.7-29.54 397.11-26.27L397.11-26.27Q398.29-24.68 398.66-22.42 399.04-20.17 399.04-18.12L399.04-18.12Q399.04-14.92 398.9-13.16L398.9-13.16Q395.45-13.01 392.72-13.01L392.72-13.01Q392.72-13.01 388.79-13.01L388.79-13.01Q382.64-13.01 379.32-13.55L379.32-13.55Q379.32-7.93 380.73-5.71L380.73-5.71Q382.47-3 387.64-3 392.82-3 397.55-5.03L397.55-5.03ZM379.32-16.41L394.92-16.41 394.92-18.75Q394.92-22.58 393.43-24.22L393.43-24.22Q391.77-26.05 387.69-26.05L387.69-26.05Q382.81-26.05 381.02-23.93L381.02-23.93Q379.32-21.9 379.32-16.41L379.32-16.41ZM415.81 0L405.85-29.05 410.22-29.05 417.84-5.35 418.57-2.93 419.25-5.35 426.53-29.05 430.95-29.05 421.13 0 415.81 0ZM459.97-5.03L461.17-1.54Q456.12 0.49 450.01 0.49L450.01 0.49Q446.47 0.49 444.01-0.24L444.01-0.24Q440.08-1.37 438.78-4.88L438.78-4.88Q437.59-8.18 437.59-14.65L437.59-14.65 437.59-15.89Q437.59-23.63 440.81-26.76L440.81-26.76Q443.72-29.54 450.5-29.54L450.5-29.54Q457.12-29.54 459.54-26.27L459.54-26.27Q460.71-24.68 461.09-22.42 461.46-20.17 461.46-18.12L461.46-18.12Q461.46-14.92 461.32-13.16L461.32-13.16Q457.88-13.01 455.14-13.01L455.14-13.01Q455.14-13.01 451.21-13.01L451.21-13.01Q445.06-13.01 441.74-13.55L441.74-13.55Q441.74-7.93 443.15-5.71L443.15-5.71Q444.89-3 450.06-3 455.24-3 459.97-5.03L459.97-5.03ZM441.74-16.41L457.34-16.41 457.34-18.75Q457.34-22.58 455.85-24.22L455.85-24.22Q454.19-26.05 450.11-26.05L450.11-26.05Q445.23-26.05 443.45-23.93L443.45-23.93Q441.74-21.9 441.74-16.41L441.74-16.41ZM472.64 0L472.59-41.5 476.62-41.85 476.62 0 472.64 0ZM487.53-14.45L487.53-14.45Q487.53-20 488.09-22.19 488.66-24.39 489.47-25.67 490.29-26.95 491.68-27.81L491.68-27.81Q494.47-29.54 499.91-29.54L499.91-29.54Q507.77-29.54 510.02-25.66L510.02-25.66Q511.36-23.32 511.56-19.04L511.56-19.04Q511.63-17.02 511.63-14.58 511.63-12.13 511.47-10.02 511.31-7.91 510.85-6.23 510.38-4.54 509.55-3.28 508.72-2.03 507.36-1.17L507.36-1.17Q504.67 0.49 499.52 0.49L499.52 0.49Q491.81 0.49 489.39-3.32L489.39-3.32Q487.9-5.69 487.66-9.96L487.66-9.96Q487.53-12.01 487.53-14.45ZM494.17-4.27Q495.05-3.61 496.38-3.28 497.71-2.95 500.02-2.95 502.33-2.95 503.9-3.61 505.48-4.27 506.27-5.73 507.06-7.18 507.27-9.5 507.48-11.82 507.48-14.89 507.48-17.97 507.3-20.02 507.11-22.07 506.38-23.41L506.38-23.41Q504.92-26.05 499.86-26.05L499.86-26.05Q494.52-26.05 492.9-23.41L492.9-23.41Q492.1-22.07 491.88-20 491.66-17.92 491.66-15.48 491.66-13.04 491.72-11.34 491.78-9.64 492.04-8.29 492.29-6.93 492.79-5.93 493.29-4.93 494.17-4.27ZM525.57-1.73L525.57-1.73 525.57 11.11 521.52 11.11 521.52-29.05 524.81-29.05 525.27-26.05Q528.13-28.2 532.72-29.2L532.72-29.2Q534.38-29.54 536.33-29.54 538.29-29.54 539.79-29.03 541.29-28.52 542.27-27.6 543.24-26.68 543.78-25.42 544.32-24.15 544.59-22.66L544.59-22.66Q544.93-20.61 544.93-16.11L544.93-16.11 544.93-15.55Q544.93-9.84 544.54-7.64 544.15-5.44 543.51-4.02 542.88-2.59 541.75-1.59L541.75-1.59Q539.44 0.49 534.58 0.49 529.72 0.49 525.57-1.73ZM525.57-22.92L525.57-5.08Q529.72-3.17 534.28-3.17L534.28-3.17Q537.26-3.17 538.63-4.27L538.63-4.27Q540.48-5.79 540.7-11.33L540.7-11.33Q540.78-13.16 540.78-15.53L540.78-15.53 540.78-16.06Q540.78-21.68 539.8-23.58L539.8-23.58Q538.7-25.76 535.26-25.76L535.26-25.76 534.89-25.76Q531.31-25.76 527.45-23.97L527.45-23.97Q526.32-23.46 525.57-22.92L525.57-22.92ZM576.52-5.03L577.71-1.54Q572.66 0.49 566.56 0.49L566.56 0.49Q563.02 0.49 560.55-0.24L560.55-0.24Q556.62-1.37 555.33-4.88L555.33-4.88Q554.13-8.18 554.13-14.65L554.13-14.65 554.13-15.89Q554.13-23.63 557.35-26.76L557.35-26.76Q560.26-29.54 567.04-29.54L567.04-29.54Q573.66-29.54 576.08-26.27L576.08-26.27Q577.25-24.68 577.63-22.42 578.01-20.17 578.01-18.12L578.01-18.12Q578.01-14.92 577.86-13.16L577.86-13.16Q574.42-13.01 571.68-13.01L571.68-13.01Q571.68-13.01 567.75-13.01L567.75-13.01Q561.6-13.01 558.28-13.55L558.28-13.55Q558.28-7.93 559.7-5.71L559.7-5.71Q561.43-3 566.61-3 571.78-3 576.52-5.03L576.52-5.03ZM558.28-16.41L573.88-16.41 573.88-18.75Q573.88-22.58 572.39-24.22L572.39-24.22Q570.73-26.05 566.65-26.05L566.65-26.05Q561.77-26.05 559.99-23.93L559.99-23.93Q558.28-21.9 558.28-16.41L558.28-16.41ZM598.68-25.51L598.68-25.51Q595.56-25.51 592.31-22.39L592.31-22.39 592.31 0 588.26 0 588.26-29.05 591.82-29.05 592.21-25.2Q593.36-26.98 594.69-27.98 596.02-28.98 596.88-29.2L596.88-29.2Q598.1-29.54 599.2-29.54 600.29-29.54 601.95-29.1L601.95-29.1 601.59-25.22Q600.34-25.51 598.68-25.51Z" opacity="1" transform="matrix(1,0,0,1,0,0)" fill="#000000" class="slogan-text-1" data-fill-palette-color="secondary" id="text-1"></path></svg></g></svg></g></svg></g></svg></g><g><svg viewBox="0 0 217.54391039999996 281.16079296419264" height="281.16079296419264" width="217.54391039999996"><g><svg xmlns="http://www.w3.org/2000/svg" xmlns:xlink="http://www.w3.org/1999/xlink" version="1.1" x="0" y="0" viewBox="11.452907485383136 0.18319745593316278 77.09324248441663 99.63780254406683" enable-background="new 0 0 100 100" xml:space="preserve" height="281.16079296419264" width="217.54391039999996" class="icon-icon-0" data-fill-palette-color="accent" id="icon-0"><path d="M82.511 27.412c-0.153-0.45-0.335-0.918-0.542-1.396-0.309-1.83-1.747-5.274-1.766-5.313l-0.298-0.659c-0.651-1.429-1.391-3.047-1.525-4.437-0.104-1.073 1.284-6.627 1.951-9.297 1.232-4.926 1.362-5.439-0.14-5.982-0.063-0.023-0.339-0.117-0.695-0.087-0.002 0-0.006-0.001-0.009-0.002-1.432-0.309-2.96 0.686-5.537 2.471-0.451 0.312-1.042 0.721-1.599 1.081 0.194-0.91 0.166-2.092-0.995-3.021-1.473-1.179-3.561 0.025-6.72 1.851-0.885 0.512-2.206 1.277-3.088 1.671-0.698-1.148-1.984-2.393-4.411-1.901-1.373 0.278-2.967 1.482-5.24 3.29-0.594 0.472-1.365 1.083-2.006 1.543-0.01-0.414-0.058-0.866-0.225-1.31-0.799-2.107-2.104-2.776-3.059-2.966-3.087-0.618-6.411 2.896-9.074 5.721-0.167 0.178-0.341 0.361-0.512 0.541-0.771-1.276-1.738-2.592-3.159-2.841-1.37-0.249-7.019 1.107-12.253 5.707-4.985 4.38-10.784 12.835-10.101 28.248 0.189 4.247 2.483 41.865 24.748 55.107 4.921 2.929 10.396 4.39 16.39 4.39 7.176 0 15.095-2.097 23.695-6.287C99.438 82.278 82.694 27.953 82.511 27.412zM74.902 90.58c-14.725 7.176-27.163 7.86-36.969 2.026C17.15 80.245 14.969 44.241 14.789 40.177c-0.458-10.333 2.045-18.458 7.441-24.148 4.628-4.88 9.882-6.251 11.043-6.399 0.393 0.325 1.019 1.403 1.331 1.942 0.274 0.472 0.511 0.881 0.757 1.21 0.526 0.703 1.515 0.868 2.241 0.371 0.604-0.413 1.324-1.176 2.319-2.233 1.294-1.372 4.726-5.016 6.044-4.754 0.19 0.039 0.432 0.387 0.624 0.891 0.027 0.109 0.021 0.439 0.016 0.656-0.017 0.818-0.049 2.342 1.308 3.141 1.58 0.931 3.349-0.477 6.025-2.604 1.178-0.935 3.147-2.5 3.851-2.642 0.6-0.123 0.779-0.16 1.327 1.18 0.203 0.495 0.633 0.86 1.155 0.979 1.377 0.316 3.096-0.622 6.008-2.305 0.714-0.414 1.725-0.997 2.535-1.404-0.262 0.765-0.496 1.825 0.147 2.846 0.317 0.499 0.812 0.84 1.398 0.959 1.408 0.289 2.915-0.695 5.456-2.454 0.459-0.318 1.062-0.735 1.631-1.101-0.099 0.398-0.201 0.809-0.302 1.206-1.284 5.138-2.182 8.893-2.034 10.411 0.077 0.792 0.268 1.578 0.518 2.342-1.675-1.002-3.583-1.524-5.677-1.222-1.18 0.17-2.325 0.668-3.379 1.452-1.541-1.364-3.285-2.314-5.158-2.481-4.594-0.411-10.566-0.412-14.952 1.486-1.987-1.58-4.941-1.796-8.208-0.576-5.852 2.186-9.76 5.959-11.616 11.216-4.686 13.274 5.215 32.351 9.747 40.022-0.164 1.434-0.124 2.876 0.167 4.269 0.791 3.781 4.143 10.188 17.713 10.63 16.722 0.545 22.231-6.685 22.858-11.04 0.339-2.355-0.765-3.736-2.013-4.06-1.087-0.281-4.48-0.328-12.545-0.372-7.308-0.041-19.064-0.107-22.618-0.773 1-3.952 3.772-7.497 6.152-8.631 1.762-0.844 2.623-0.134 3.116 0.473 0.646 0.792 1.375 0.934 1.863 0.939 1.077-0.021 1.734-0.803 2.146-1.342 0.404 0.174 0.913 0.562 1.444 0.966 1.293 0.984 3.066 2.335 5.648 2.366 1.396-0.012 2.551-0.383 3.365-1.188 1.332-1.316 1.442-3.296 1.442-5.379 0-2.181-0.385-4.188-0.757-6.127l-0.197-1.041c-0.765-4.127-1.848-8.546-3.217-13.135-0.281-0.939-0.59-1.899-0.901-2.862-0.438-1.356-0.891-2.758-1.247-4.074-0.231-0.85-0.744-3.052-1.118-4.66-0.191-0.825-0.347-1.49-0.408-1.738-0.221-0.879-1.112-1.414-1.991-1.193-0.88 0.22-1.414 1.112-1.193 1.991 0.06 0.241 0.21 0.885 0.396 1.684 0.381 1.633 0.9 3.869 1.147 4.776 0.377 1.39 0.841 2.83 1.29 4.222 0.304 0.939 0.606 1.877 0.879 2.794 1.338 4.477 2.395 8.78 3.136 12.792l0.201 1.062c0.358 1.872 0.699 3.64 0.699 5.508 0 0.901 0 2.581-0.468 3.044-0.209 0.205-0.678 0.239-1.019 0.239-1.496-0.018-2.566-0.832-3.7-1.694-1.138-0.868-2.422-1.863-4.105-1.72-0.722 0.055-1.21 0.481-1.562 0.894-1.704-1.469-3.945-1.686-6.301-0.563-2.839 1.354-5.578 4.587-7.119 8.388-4.623-8.42-11.58-23.769-7.835-34.374 1.539-4.357 4.702-7.378 9.669-9.233 0.633-0.237 2.413-0.813 3.896-0.457-2.427 2.45-5.893 8.44-5.435 12.451 0.201 1.769 1.147 3.108 2.663 3.77 2.727 1.193 6.862 0.501 8.436-2.391 0.894-1.645 1.177-4.261 0.842-7.779-0.061-0.642-0.354-3.16-1.345-5.357 3.003-1.086 7.366-1.424 12.663-0.952 0.985 0.088 2.072 0.639 3.16 1.577-0.101 0.141-0.199 0.284-0.297 0.43-2.025 3.06-2.879 7.052-2.12 9.932 0.317 1.204 1.155 2.146 2.425 2.726 2.276 1.041 5.57 0.713 7.439-0.207 0.839-0.411 1.736-1.451 1.249-4.067-0.438-2.36-1.95-5.873-4.165-8.749 0.525-0.341 1.066-0.557 1.606-0.634 3.628-0.533 6.886 3.368 8.464 6.87 0.006 0.017 0.014 0.033 0.021 0.05 0.19 0.426 0.356 0.847 0.494 1.253C82.27 36.925 93.027 81.749 74.902 90.58zM66.648 23.53c2.244 3.174 3.165 6.318 3.199 7.445-1.197 0.403-3.087 0.494-4.19-0.011-0.525-0.24-0.593-0.493-0.613-0.576-0.498-1.885 0.133-4.781 1.502-7.002C66.58 23.434 66.615 23.482 66.648 23.53zM46.081 31.805c-0.652 1.199-2.913 1.53-4.238 0.952-0.32-0.14-0.628-0.374-0.715-1.133-0.313-2.747 2.631-7.936 4.467-9.747 0.484 1.192 0.819 2.716 0.944 4.03C46.796 28.601 46.624 30.806 46.081 31.805zM39.57 70.049c3.103 0.547 9.463 0.748 22.979 0.823 4.6 0.025 9.753 0.055 11.355 0.212 0.026 0.468-0.139 1.45-0.95 2.659-1.315 1.952-5.758 6.445-18.579 6.037-8.518-0.276-13.568-3.049-14.608-8.021C39.649 71.195 39.586 70.624 39.57 70.049z" fill="#000000" data-fill-palette-color="accent"></path></svg></g></svg></g></svg></g><defs></defs></svg><rect width="395.52" height="169.29334394044218" fill="none" stroke="none" visibility="hidden"></rect></g></svg></g></svg>