<svg xmlns="http://www.w3.org/2000/svg" version="1.1" xmlns:xlink="http://www.w3.org/1999/xlink" xmlns:svgjs="http://svgjs.dev/svgjs" width="1500" height="1707" viewBox="0 0 1500 1707"><g transform="matrix(1,0,0,1,-1.5380184331799,0.6910931174088546)"><svg viewBox="0 0 217 247" data-background-color="#e5fc54" preserveAspectRatio="xMidYMid meet" height="1707" width="1500" xmlns="http://www.w3.org/2000/svg" xmlns:xlink="http://www.w3.org/1999/xlink"><g id="tight-bounds" transform="matrix(1,0,0,1,0.222500000000025,-0.09999999999999432)"><svg viewBox="0 0 216.55483642972206 247.2" height="247.2" width="216.55483642972206"><g><svg></svg></g><g><svg viewBox="0 0 216.55483642972206 247.2" height="247.2" width="216.55483642972206"><g transform="matrix(1,0,0,1,0,47.215199999999996)"><svg viewBox="0 0 216.55483642972206 152.7696" height="152.7696" width="216.55483642972206"><g><svg viewBox="0 0 216.55483642972206 152.7696" height="152.7696" width="216.55483642972206"><g><svg viewBox="0 0 244.43136 172.43522107516816" height="152.7696" width="216.55483642972206"><g><svg viewBox="0 0 244.43136 172.43522107516816" height="172.43522107516816" width="244.43136"><g id="textblocktransform"><svg viewBox="0 0 244.43136 172.43522107516816" height="172.43522107516816" width="244.43136" id="textblock"><g><svg viewBox="0 0 244.43136 116.85299244777718" height="116.85299244777718" width="244.43136"><g transform="matrix(1,0,0,1,0,0)"><svg width="244.43136" viewBox="0 -35.86 91.16 43.57671875" height="116.85299244777718" data-palette-color="#2454ff"><path d="M19.04-28.59L19.04-1.29Q19.04-0.56 18.74-0.28 18.43 0 17.7 0L17.7 0 12.5 0Q11.77 0 11.46-0.28 11.16-0.56 11.16-1.29L11.16-1.29 11.16-28.59 3.88-28.59Q3.3-28.59 3-28.78L3-28.78Q2.37-29.22 1.7-29.83 1.03-30.44 0.24-31.3L0.24-31.3Q0-31.62 0-31.81L0-31.81Q0-32.03 0.24-32.3L0.24-32.3Q1.03-33.15 1.7-33.76 2.37-34.38 3-34.81L3-34.81Q3.34-35.01 3.88-35.01L3.88-35.01 26.34-35.01Q26.93-35.01 27.22-34.81L27.22-34.81Q27.86-34.38 28.54-33.76 29.22-33.15 29.98-32.3L29.98-32.3Q30.22-31.98 30.22-31.79L30.22-31.79Q30.22-31.57 29.98-31.3L29.98-31.3Q29.22-30.44 28.54-29.83 27.86-29.22 27.22-28.78L27.22-28.78Q26.88-28.59 26.34-28.59L26.34-28.59 19.04-28.59ZM43.72-31.1L43.72-10.21Q43.72-6.2 42.91-3.34 42.09-0.49 40.66 1.51 39.23 3.52 37.41 4.94 35.59 6.37 33.59 7.54L33.59 7.54Q32.76 8.01 32.27 7.23L32.27 7.23 29.54 2.86Q29 1.98 29.9 1.44L29.9 1.44Q31.49 0.51 32.83-0.87 34.18-2.25 35.01-4.48 35.84-6.71 35.84-10.21L35.84-10.21 35.84-31.1Q35.84-31.81 36.08-32.18L36.08-32.18Q37.18-33.79 39.16-35.57L39.16-35.57Q39.52-35.86 39.79-35.86L39.79-35.86Q40.09-35.86 40.4-35.57L40.4-35.57Q41.48-34.64 42.21-33.8 42.94-32.96 43.48-32.18L43.48-32.18Q43.72-31.79 43.72-31.1L43.72-31.1ZM71.16-14.01L71.36-14.01Q71.7-15.33 72.1-16.61 72.5-17.9 73.09-19.48L73.09-19.48Q73.6-20.9 74.34-22.74 75.07-24.58 75.89-26.49 76.7-28.39 77.49-30.03 78.27-31.67 78.9-32.64L78.9-32.64Q79.68-33.84 80.6-34.42 81.51-35.01 83.3-35.01L83.3-35.01 86.49-35.01Q87.76-35.01 88.63-34.63 89.5-34.25 89.86-32.84L89.86-32.84Q90.13-31.79 90.38-29.76 90.62-27.73 90.79-24.15 90.96-20.56 91.06-14.93 91.16-9.3 91.16-1.03L91.16-1.03Q91.16-0.59 90.86-0.29 90.57 0 90.16 0L90.16 0 84.59 0Q84.17 0 83.88-0.29 83.59-0.59 83.59-1.05L83.59-1.05Q83.59-7.5 83.59-11.99 83.59-16.48 83.56-19.43 83.54-22.39 83.5-24.13 83.47-25.88 83.39-26.83L83.39-26.83 83.25-26.83Q81.95-23.85 80.49-20.2 79.02-16.55 77.63-12.68 76.24-8.81 75.14-5.13L75.14-5.13Q74.82-4.03 74.35-3.6 73.87-3.17 72.19-3.17L72.19-3.17 69.38-3.17Q67.94-3.17 67.46-3.54 66.99-3.91 66.65-5.13L66.65-5.13Q65.84-7.91 64.86-11.01 63.89-14.11 62.85-17.1 61.81-20.09 60.85-22.62 59.88-25.15 59.13-26.83L59.13-26.83 58.98-26.83Q58.78-23.95 58.64-19.82 58.49-15.7 58.41-10.86 58.32-6.03 58.3-1L58.3-1Q58.3-0.56 58-0.28 57.71 0 57.29 0L57.29 0 52.29 0Q51.87 0 51.58-0.29 51.29-0.59 51.29-1.05L51.29-1.05Q51.31-14.06 51.81-21.83 52.31-29.59 52.9-32.23L52.9-32.23Q53.29-33.96 54.28-34.48 55.27-35.01 56.54-35.01L56.54-35.01 60.49-35.01Q61.84-35.01 62.46-34.53 63.08-34.06 63.98-32.69L63.98-32.69Q64.52-31.88 65.27-30.27 66.01-28.66 66.82-26.7 67.62-24.73 68.34-22.81 69.06-20.9 69.53-19.48L69.53-19.48Q70.01-18.04 70.43-16.69 70.84-15.33 71.16-14.01L71.16-14.01Z" opacity="1" transform="matrix(1,0,0,1,0,0)" fill="#2454ff" class="wordmark-text-0" data-fill-palette-color="primary" id="text-0"></path></svg></g></svg></g><g transform="matrix(1,0,0,1,0,144.43917949287862)"><svg viewBox="0 0 244.43136 27.996041582289543" height="27.996041582289543" width="244.43136"><g transform="matrix(1,0,0,1,0,0)"><svg width="244.43136" viewBox="1 -37.99 419.07 48" height="27.996041582289543" data-palette-color="#2454ff"><path d="M36.65-35.01L27.39 0 25.76 0 18.95-26.34 18.85-27.71 18.7-26.34 11.94 0 10.3 0 1-35.01 4.15-35.01 11.01-8.4 11.11-7.1 11.21-8.4 17.94-35.01 19.7-35.01 26.44-8.4 26.54-7.1 26.66-8.4 33.5-35.01 36.65-35.01ZM56.64-6.86L56.64-6.86Q56.64-5.35 56.07-4 55.49-2.66 54.49-1.66 53.49-0.66 52.15-0.09 50.81 0.49 49.29 0.49L49.29 0.49 47.29 0.49Q45.78 0.49 44.43-0.09 43.09-0.66 42.09-1.66 41.09-2.66 40.52-4 39.94-5.35 39.94-6.86L39.94-6.86 39.94-18.14Q39.94-19.65 40.52-21 41.09-22.34 42.09-23.34 43.09-24.34 44.43-24.91 45.78-25.49 47.29-25.49L47.29-25.49 49.29-25.49Q50.81-25.49 52.15-24.91 53.49-24.34 54.49-23.34 55.49-22.34 56.07-21 56.64-19.65 56.64-18.14L56.64-18.14 56.64-12.26 42.94-12.26 42.94-6.69Q42.94-5.79 43.29-4.99 43.63-4.2 44.21-3.61 44.8-3.03 45.59-2.69 46.39-2.34 47.29-2.34L47.29-2.34 49.29-2.34Q50.2-2.34 50.99-2.69 51.78-3.03 52.37-3.61 52.95-4.2 53.3-4.99 53.64-5.79 53.64-6.69L53.64-6.69 53.64-8.35 56.64-7.86 56.64-6.86ZM53.64-14.6L53.64-18.31Q53.64-19.21 53.3-20.01 52.95-20.8 52.37-21.39 51.78-21.97 50.99-22.31 50.2-22.66 49.29-22.66L49.29-22.66 47.29-22.66Q46.39-22.66 45.59-22.31 44.8-21.97 44.21-21.39 43.63-20.8 43.29-20.01 42.94-19.21 42.94-18.31L42.94-18.31 42.94-14.6 53.64-14.6ZM79.35-6.86L79.35-6.86Q79.35-5.35 78.77-4 78.2-2.66 77.2-1.66 76.2-0.66 74.85-0.09 73.51 0.49 72 0.49L72 0.49 70 0.49Q68.48 0.49 67.14-0.09 65.8-0.66 64.79-1.66 63.79-2.66 63.22-4 62.65-5.35 62.65-6.86L62.65-6.86 62.65-35.01 65.65-35.01 65.65-22.9Q66.67-24.12 68.12-24.8 69.56-25.49 71.24-25.49L71.24-25.49 72-25.49Q73.51-25.49 74.85-24.91 76.2-24.34 77.2-23.34 78.2-22.34 78.77-21 79.35-19.65 79.35-18.14L79.35-18.14 79.35-6.86ZM76.34-6.69L76.34-18.31Q76.34-19.21 76-20.01 75.66-20.8 75.07-21.39 74.49-21.97 73.69-22.31 72.9-22.66 72-22.66L72-22.66 70-22.66Q69.09-22.66 68.3-22.31 67.5-21.97 66.92-21.39 66.33-20.8 65.99-20.01 65.65-19.21 65.65-18.31L65.65-18.31 65.65-6.69Q65.65-5.79 65.99-4.99 66.33-4.2 66.92-3.61 67.5-3.03 68.3-2.69 69.09-2.34 70-2.34L70-2.34 72-2.34Q72.9-2.34 73.69-2.69 74.49-3.03 75.07-3.61 75.66-4.2 76-4.99 76.34-5.79 76.34-6.69L76.34-6.69ZM86.5 3L83.35 3 97.29-37.99 100.44-37.99 86.5 3ZM130.15 0L127 0 127-24 126.78-22.51 118.65 0 116.99 0 108.79-22.51 108.59-24 108.59 0 105.44 0 105.44-35.01 107.08-35.01 117.7-6.3 117.8-5 117.9-6.3 128.49-35.01 130.15-35.01 130.15 0ZM153.34-6.86L153.34-6.86Q153.34-5.35 152.77-4 152.2-2.66 151.2-1.66 150.2-0.66 148.85-0.09 147.51 0.49 146 0.49L146 0.49 143.99 0.49Q142.48 0.49 141.14-0.09 139.79-0.66 138.79-1.66 137.79-2.66 137.22-4 136.65-5.35 136.65-6.86L136.65-6.86 136.65-18.14Q136.65-19.65 137.22-21 137.79-22.34 138.79-23.34 139.79-24.34 141.14-24.91 142.48-25.49 143.99-25.49L143.99-25.49 146-25.49Q147.51-25.49 148.85-24.91 150.2-24.34 151.2-23.34 152.2-22.34 152.77-21 153.34-19.65 153.34-18.14L153.34-18.14 153.34-6.86ZM150.34-6.69L150.34-18.31Q150.34-19.21 150-20.01 149.66-20.8 149.07-21.39 148.49-21.97 147.69-22.31 146.9-22.66 146-22.66L146-22.66 143.99-22.66Q143.09-22.66 142.3-22.31 141.5-21.97 140.92-21.39 140.33-20.8 139.99-20.01 139.65-19.21 139.65-18.31L139.65-18.31 139.65-6.69Q139.65-5.79 139.99-4.99 140.33-4.2 140.92-3.61 141.5-3.03 142.3-2.69 143.09-2.34 143.99-2.34L143.99-2.34 146-2.34Q146.9-2.34 147.69-2.69 148.49-3.03 149.07-3.61 149.66-4.2 150-4.99 150.34-5.79 150.34-6.69L150.34-6.69ZM176.05-6.86L176.05-6.86Q176.05-5.35 175.48-4 174.9-2.66 173.9-1.66 172.9-0.66 171.56-0.09 170.21 0.49 168.7 0.49L168.7 0.49 166.7 0.49Q165.19 0.49 163.84-0.09 162.5-0.66 161.5-1.66 160.5-2.66 159.92-4 159.35-5.35 159.35-6.86L159.35-6.86 159.35-35.01 162.35-35.01 162.35-22.9Q163.38-24.12 164.82-24.8 166.26-25.49 167.94-25.49L167.94-25.49 168.7-25.49Q170.21-25.49 171.56-24.91 172.9-24.34 173.9-23.34 174.9-22.34 175.48-21 176.05-19.65 176.05-18.14L176.05-18.14 176.05-6.86ZM173.05-6.69L173.05-18.31Q173.05-19.21 172.71-20.01 172.36-20.8 171.78-21.39 171.19-21.97 170.4-22.31 169.6-22.66 168.7-22.66L168.7-22.66 166.7-22.66Q165.8-22.66 165-22.31 164.21-21.97 163.62-21.39 163.04-20.8 162.7-20.01 162.35-19.21 162.35-18.31L162.35-18.31 162.35-6.69Q162.35-5.79 162.7-4.99 163.04-4.2 163.62-3.61 164.21-3.03 165-2.69 165.8-2.34 166.7-2.34L166.7-2.34 168.7-2.34Q169.6-2.34 170.4-2.69 171.19-3.03 171.78-3.61 172.36-4.2 172.71-4.99 173.05-5.79 173.05-6.69L173.05-6.69ZM186.3-31.01L182.81-31.01 182.81-35.01 186.3-35.01 186.3-31.01ZM186.06 0L183.06 0 183.06-25 186.06-25 186.06 0ZM197.07 0L194.07 0 194.07-35.01 197.07-35.01 197.07 0ZM220.78-6.86L220.78-6.86Q220.78-5.35 220.2-4 219.63-2.66 218.63-1.66 217.63-0.66 216.28-0.09 214.94 0.49 213.43 0.49L213.43 0.49 211.43 0.49Q209.91 0.49 208.57-0.09 207.23-0.66 206.23-1.66 205.22-2.66 204.65-4 204.08-5.35 204.08-6.86L204.08-6.86 204.08-18.14Q204.08-19.65 204.65-21 205.22-22.34 206.23-23.34 207.23-24.34 208.57-24.91 209.91-25.49 211.43-25.49L211.43-25.49 213.43-25.49Q214.94-25.49 216.28-24.91 217.63-24.34 218.63-23.34 219.63-22.34 220.2-21 220.78-19.65 220.78-18.14L220.78-18.14 220.78-12.26 207.08-12.26 207.08-6.69Q207.08-5.79 207.42-4.99 207.76-4.2 208.35-3.61 208.94-3.03 209.73-2.69 210.52-2.34 211.43-2.34L211.43-2.34 213.43-2.34Q214.33-2.34 215.12-2.69 215.92-3.03 216.5-3.61 217.09-4.2 217.43-4.99 217.77-5.79 217.77-6.69L217.77-6.69 217.77-8.35 220.78-7.86 220.78-6.86ZM217.77-14.6L217.77-18.31Q217.77-19.21 217.43-20.01 217.09-20.8 216.5-21.39 215.92-21.97 215.12-22.31 214.33-22.66 213.43-22.66L213.43-22.66 211.43-22.66Q210.52-22.66 209.73-22.31 208.94-21.97 208.35-21.39 207.76-20.8 207.42-20.01 207.08-19.21 207.08-18.31L207.08-18.31 207.08-14.6 217.77-14.6ZM258.98-8.59L258.98-8.59Q258.98-6.81 258.31-5.25 257.64-3.69 256.47-2.51 255.3-1.34 253.72-0.67 252.15 0 250.37 0L250.37 0 239.28 0 239.28-35.01 250.37-35.01Q252.15-35.01 253.72-34.34 255.3-33.67 256.47-32.5 257.64-31.32 258.31-29.75 258.98-28.17 258.98-26.39L258.98-26.39 258.98-8.59ZM255.83-8.59L255.83-26.39Q255.83-27.56 255.4-28.58 254.96-29.59 254.19-30.36 253.42-31.13 252.4-31.57 251.39-32.01 250.22-32.01L250.22-32.01 242.43-32.01 242.43-3 250.22-3Q251.39-3 252.4-3.44 253.42-3.88 254.19-4.64 254.96-5.4 255.4-6.41 255.83-7.42 255.83-8.59L255.83-8.59ZM282.18-6.86L282.18-6.86Q282.18-5.35 281.6-4 281.03-2.66 280.03-1.66 279.03-0.66 277.69-0.09 276.34 0.49 274.83 0.49L274.83 0.49 272.83 0.49Q271.31 0.49 269.97-0.09 268.63-0.66 267.63-1.66 266.63-2.66 266.05-4 265.48-5.35 265.48-6.86L265.48-6.86 265.48-18.14Q265.48-19.65 266.05-21 266.63-22.34 267.63-23.34 268.63-24.34 269.97-24.91 271.31-25.49 272.83-25.49L272.83-25.49 274.83-25.49Q276.34-25.49 277.69-24.91 279.03-24.34 280.03-23.34 281.03-22.34 281.6-21 282.18-19.65 282.18-18.14L282.18-18.14 282.18-12.26 268.48-12.26 268.48-6.69Q268.48-5.79 268.82-4.99 269.17-4.2 269.75-3.61 270.34-3.03 271.13-2.69 271.92-2.34 272.83-2.34L272.83-2.34 274.83-2.34Q275.73-2.34 276.53-2.69 277.32-3.03 277.91-3.61 278.49-4.2 278.83-4.99 279.17-5.79 279.17-6.69L279.17-6.69 279.17-8.35 282.18-7.86 282.18-6.86ZM279.17-14.6L279.17-18.31Q279.17-19.21 278.83-20.01 278.49-20.8 277.91-21.39 277.32-21.97 276.53-22.31 275.73-22.66 274.83-22.66L274.83-22.66 272.83-22.66Q271.92-22.66 271.13-22.31 270.34-21.97 269.75-21.39 269.17-20.8 268.82-20.01 268.48-19.21 268.48-18.31L268.48-18.31 268.48-14.6 279.17-14.6ZM304.88-25L296.02 0 294.53 0 285.67-25 288.67-25 295.19-6.05 295.29-4.76 295.39-6.05 301.88-25 304.88-25ZM325.07-6.86L325.07-6.86Q325.07-5.35 324.5-4 323.93-2.66 322.92-1.66 321.92-0.66 320.58-0.09 319.24 0.49 317.72 0.49L317.72 0.49 315.72 0.49Q314.21 0.49 312.87-0.09 311.52-0.66 310.52-1.66 309.52-2.66 308.95-4 308.37-5.35 308.37-6.86L308.37-6.86 308.37-18.14Q308.37-19.65 308.95-21 309.52-22.34 310.52-23.34 311.52-24.34 312.87-24.91 314.21-25.49 315.72-25.49L315.72-25.49 317.72-25.49Q319.24-25.49 320.58-24.91 321.92-24.34 322.92-23.34 323.93-22.34 324.5-21 325.07-19.65 325.07-18.14L325.07-18.14 325.07-12.26 311.38-12.26 311.38-6.69Q311.38-5.79 311.72-4.99 312.06-4.2 312.65-3.61 313.23-3.03 314.03-2.69 314.82-2.34 315.72-2.34L315.72-2.34 317.72-2.34Q318.63-2.34 319.42-2.69 320.21-3.03 320.8-3.61 321.39-4.2 321.73-4.99 322.07-5.79 322.07-6.69L322.07-6.69 322.07-8.35 325.07-7.86 325.07-6.86ZM322.07-14.6L322.07-18.31Q322.07-19.21 321.73-20.01 321.39-20.8 320.8-21.39 320.21-21.97 319.42-22.31 318.63-22.66 317.72-22.66L317.72-22.66 315.72-22.66Q314.82-22.66 314.03-22.31 313.23-21.97 312.65-21.39 312.06-20.8 311.72-20.01 311.38-19.21 311.38-18.31L311.38-18.31 311.38-14.6 322.07-14.6ZM335.08 0L332.08 0 332.08-35.01 335.08-35.01 335.08 0ZM358.3-6.86L358.3-6.86Q358.3-5.35 357.73-4 357.15-2.66 356.15-1.66 355.15-0.66 353.81-0.09 352.47 0.49 350.95 0.49L350.95 0.49 348.95 0.49Q347.44 0.49 346.09-0.09 344.75-0.66 343.75-1.66 342.75-2.66 342.18-4 341.6-5.35 341.6-6.86L341.6-6.86 341.6-18.14Q341.6-19.65 342.18-21 342.75-22.34 343.75-23.34 344.75-24.34 346.09-24.91 347.44-25.49 348.95-25.49L348.95-25.49 350.95-25.49Q352.47-25.49 353.81-24.91 355.15-24.34 356.15-23.34 357.15-22.34 357.73-21 358.3-19.65 358.3-18.14L358.3-18.14 358.3-6.86ZM355.3-6.69L355.3-18.31Q355.3-19.21 354.96-20.01 354.61-20.8 354.03-21.39 353.44-21.97 352.65-22.31 351.86-22.66 350.95-22.66L350.95-22.66 348.95-22.66Q348.05-22.66 347.25-22.31 346.46-21.97 345.87-21.39 345.29-20.8 344.95-20.01 344.6-19.21 344.6-18.31L344.6-18.31 344.6-6.69Q344.6-5.79 344.95-4.99 345.29-4.2 345.87-3.61 346.46-3.03 347.25-2.69 348.05-2.34 348.95-2.34L348.95-2.34 350.95-2.34Q351.86-2.34 352.65-2.69 353.44-3.03 354.03-3.61 354.61-4.2 354.96-4.99 355.3-5.79 355.3-6.69L355.3-6.69ZM381.01-6.86L381.01-6.86Q381.01-5.35 380.43-4 379.86-2.66 378.86-1.66 377.86-0.66 376.51-0.09 375.17 0.49 373.66 0.49L373.66 0.49 372.9 0.49Q371.22 0.49 369.78-0.2 368.33-0.88 367.31-2.1L367.31-2.1 367.31 10.01 364.31 10.01 364.31-25 365.31-25 366.94-22.46Q367.97-23.85 369.52-24.67 371.07-25.49 372.9-25.49L372.9-25.49 373.66-25.49Q375.17-25.49 376.51-24.91 377.86-24.34 378.86-23.34 379.86-22.34 380.43-21 381.01-19.65 381.01-18.14L381.01-18.14 381.01-6.86ZM378-6.69L378-18.31Q378-19.21 377.66-20.01 377.32-20.8 376.73-21.39 376.15-21.97 375.35-22.31 374.56-22.66 373.66-22.66L373.66-22.66 371.66-22.66Q370.75-22.66 369.96-22.31 369.17-21.97 368.58-21.39 367.99-20.8 367.65-20.01 367.31-19.21 367.31-18.31L367.31-18.31 367.31-6.69Q367.31-5.79 367.65-4.99 367.99-4.2 368.58-3.61 369.17-3.03 369.96-2.69 370.75-2.34 371.66-2.34L371.66-2.34 373.66-2.34Q374.56-2.34 375.35-2.69 376.15-3.03 376.73-3.61 377.32-4.2 377.66-4.99 378-5.79 378-6.69L378-6.69ZM403.71-6.86L403.71-6.86Q403.71-5.35 403.14-4 402.56-2.66 401.56-1.66 400.56-0.66 399.22-0.09 397.88 0.49 396.36 0.49L396.36 0.49 394.36 0.49Q392.85 0.49 391.5-0.09 390.16-0.66 389.16-1.66 388.16-2.66 387.59-4 387.01-5.35 387.01-6.86L387.01-6.86 387.01-18.14Q387.01-19.65 387.59-21 388.16-22.34 389.16-23.34 390.16-24.34 391.5-24.91 392.85-25.49 394.36-25.49L394.36-25.49 396.36-25.49Q397.88-25.49 399.22-24.91 400.56-24.34 401.56-23.34 402.56-22.34 403.14-21 403.71-19.65 403.71-18.14L403.71-18.14 403.71-12.26 390.01-12.26 390.01-6.69Q390.01-5.79 390.36-4.99 390.7-4.2 391.28-3.61 391.87-3.03 392.66-2.69 393.46-2.34 394.36-2.34L394.36-2.34 396.36-2.34Q397.27-2.34 398.06-2.69 398.85-3.03 399.44-3.61 400.02-4.2 400.37-4.99 400.71-5.79 400.71-6.69L400.71-6.69 400.71-8.35 403.71-7.86 403.71-6.86ZM400.71-14.6L400.71-18.31Q400.71-19.21 400.37-20.01 400.02-20.8 399.44-21.39 398.85-21.97 398.06-22.31 397.27-22.66 396.36-22.66L396.36-22.66 394.36-22.66Q393.46-22.66 392.66-22.31 391.87-21.97 391.28-21.39 390.7-20.8 390.36-20.01 390.01-19.21 390.01-18.31L390.01-18.31 390.01-14.6 400.71-14.6ZM420.07-22.14L417.07-22.14Q416.16-22.14 415.37-21.8 414.58-21.46 413.99-20.87 413.4-20.29 413.06-19.49 412.72-18.7 412.72-17.8L412.72-17.8 412.72 0 409.72 0 409.72-25 410.72-25 412.35-22.46Q413.38-23.85 414.93-24.67 416.48-25.49 418.31-25.49L418.31-25.49 420.07-25.49 420.07-22.14Z" opacity="1" transform="matrix(1,0,0,1,0,0)" fill="#2454ff" class="slogan-text-1" data-fill-palette-color="secondary" id="text-1"></path></svg></g></svg></g></svg></g></svg></g><g></g></svg></g></svg></g></svg></g><path d="M0 41.215L0 1 216.555 1 216.555 41.215 207.219 41.215 207.219 10.336 9.336 10.336 9.336 41.215 0 41.215M0 205.985L0 246.2 216.555 246.2 216.555 205.985 207.219 205.985 207.219 236.864 9.336 236.864 9.336 205.985 0 205.985" fill="#2454ff" stroke="transparent" data-fill-palette-color="tertiary"></path></svg></g><defs></defs></svg><rect width="216.55483642972206" height="247.2" fill="none" stroke="none" visibility="hidden"></rect></g></svg></g></svg>